<?xml version="1.0" encoding="UTF-8"?>
<svg version="1.1" xmlns="http://www.w3.org/2000/svg" width="465" height="302">
<path d="M0 0 C85.14 0 170.28 0 258 0 C258 53.13 258 106.26 258 161 C172.86 161 87.72 161 0 161 C0 107.87 0 54.74 0 0 Z " fill="#F9FAFB" transform="translate(0,0)"/>
<path d="M0 0 C85.14 0 170.28 0 258 0 C258 1.32 258 2.64 258 4 C172.86 4 87.72 4 0 4 C0 2.68 0 1.36 0 0 Z " fill="#E3E3E3" transform="translate(0,109)"/>
<path d="M0 0 C6.27 0 12.54 0 19 0 C19 3.3 19 6.6 19 10 C16.02077407 10.02683987 13.04178705 10.04676037 10.0625 10.0625 C8.78729492 10.07506836 8.78729492 10.07506836 7.48632812 10.08789062 C6.67744141 10.09111328 5.86855469 10.09433594 5.03515625 10.09765625 C4.2862915 10.10289307 3.53742676 10.10812988 2.76586914 10.11352539 C1 10 1 10 0 9 C0 6.03 0 3.06 0 0 Z " fill="#238D5D" transform="translate(236,77)"/>
<path d="M0 0 C0.33 0.66 0.66 1.32 1 2 C2.093125 1.79375 3.18625 1.5875 4.3125 1.375 C8 1 8 1 11 3 C13.15274948 2.69159401 13.15274948 2.69159401 15 2 C15 3.65 15 5.3 15 7 C8.25 8.125 8.25 8.125 6 7 C4.00039988 6.960008 1.99952758 6.95653201 0 7 C0 4.69 0 2.38 0 0 Z " fill="#9A9C9D" transform="translate(4,58)"/>
<path d="M0 0 C1.1446875 0.2475 1.1446875 0.2475 2.3125 0.5 C5.00856207 1.00159294 6.44020291 0.8532657 9 0 C9 1.66666667 9 3.33333333 9 5 C6.03 5 3.06 5 0 5 C-0.33 3.68 -0.66 2.36 -1 1 C-0.67 0.67 -0.34 0.34 0 0 Z " fill="#999B9C" transform="translate(66,60)"/>
<path d="M0 0 C3.96 0.33 7.92 0.66 12 1 C12 1.99 12 2.98 12 4 C8.04 4 4.08 4 0 4 C0 2.68 0 1.36 0 0 Z " fill="#9B9B9B" transform="translate(88,90)"/>
<path d="M0 0 C1.32 0 2.64 0 4 0 C4 1.65 4 3.3 4 5 C1.69 5.33 -0.62 5.66 -3 6 C-3 4.35 -3 2.7 -3 1 C-2.01 1 -1.02 1 0 1 C0 0.67 0 0.34 0 0 Z " fill="#A8A9AB" transform="translate(15,60)"/>
<path d="M0 0 C0.33 0 0.66 0 1 0 C1 2.31 1 4.62 1 7 C-0.65 6.67 -2.3 6.34 -4 6 C-3.67 4.68 -3.34 3.36 -3 2 C-2.01 2 -1.02 2 0 2 C0 1.34 0 0.68 0 0 Z " fill="#8C8E8F" transform="translate(26,58)"/>
<path d="M0 0 C0 2.31 0 4.62 0 7 C-0.66 7 -1.32 7 -2 7 C-2.33 6.34 -2.66 5.68 -3 5 C-3.66 5.66 -4.32 6.32 -5 7 C-5.1875 4.625 -5.1875 4.625 -5 2 C-2 0 -2 0 0 0 Z " fill="#A2A3A5" transform="translate(64,58)"/>
<path d="M0 0 C4.29 0.33 8.58 0.66 13 1 C12.67 1.66 12.34 2.32 12 3 C10.37509046 3.02698189 8.75005367 3.04638757 7.125 3.0625 C5.76761719 3.07990234 5.76761719 3.07990234 4.3828125 3.09765625 C2 3 2 3 0 2 C0 1.34 0 0.68 0 0 Z " fill="#808080" transform="translate(34,91)"/>
<path d="M0 0 C2.33333333 0 4.66666667 0 7 0 C7 1.32 7 2.64 7 4 C4.36 3.67 1.72 3.34 -1 3 C-0.67 2.01 -0.34 1.02 0 0 Z " fill="#61B188" transform="translate(241,80)"/>
<path d="M0 0 C0.33 0.66 0.66 1.32 1 2 C2.65 2 4.3 2 6 2 C6 2.66 6 3.32 6 4 C3.03 4 0.06 4 -3 4 C-3 3.34 -3 2.68 -3 2 C-2.01 1.34 -1.02 0.68 0 0 Z " fill="#888888" transform="translate(149,90)"/>
<path d="M0 0 C1.98 0.495 1.98 0.495 4 1 C4 2.32 4 3.64 4 5 C2.35 5 0.7 5 -1 5 C-0.67 3.35 -0.34 1.7 0 0 Z " fill="#8E8F91" transform="translate(54,60)"/>
<path d="M0 0 C1.98 0.495 1.98 0.495 4 1 C4 2.32 4 3.64 4 5 C2.35 4.67 0.7 4.34 -1 4 C-0.67 2.68 -0.34 1.36 0 0 Z " fill="#838586" transform="translate(29,60)"/>
<path d="M0 0 C0.99 0.33 1.98 0.66 3 1 C3 2.32 3 3.64 3 5 C1.35 4.67 -0.3 4.34 -2 4 C-1.34 2.68 -0.68 1.36 0 0 Z " fill="#9FA1A2" transform="translate(72,60)"/>
<path d="M0 0 C2.97 0.495 2.97 0.495 6 1 C6 1.99 6 2.98 6 4 C4.35 4 2.7 4 1 4 C0.67 2.68 0.34 1.36 0 0 Z " fill="#A0A0A0" transform="translate(139,90)"/>
</svg>
