<?xml version="1.0" encoding="UTF-8"?>
<svg version="1.1" xmlns="http://www.w3.org/2000/svg" width="465" height="302">
<path d="M0 0 C621.39 0 1242.78 0 1883 0 C1883 217.14 1883 434.28 1883 658 C1261.61 658 640.22 658 0 658 C0 440.86 0 223.72 0 0 Z " fill="#1A1C1D" transform="translate(0,0)"/>
<path d="M0 0 C1.83488228 -0.0131424 1.83488228 -0.0131424 3.70683289 -0.02655029 C7.05435119 -0.04476854 10.40032137 -0.0405265 13.74775243 -0.02465487 C17.25327812 -0.01197737 20.75873862 -0.02374082 24.26426697 -0.03158569 C30.14960583 -0.04067576 36.03463071 -0.02871032 41.91992188 -0.00488281 C48.72244816 0.02234035 55.52422544 0.01350388 62.32673365 -0.01401484 C68.17065052 -0.0367085 74.014342 -0.03990527 79.85828871 -0.02682149 C83.3472051 -0.01902983 86.83576944 -0.01797724 90.32466316 -0.03450394 C94.21283191 -0.05163651 98.1001621 -0.02788871 101.98828125 0 C103.14423798 -0.01012115 104.3001947 -0.02024231 105.49118042 -0.03067017 C113.24031428 0.07255184 113.24031428 0.07255184 116.64341736 2.90919495 C117.89388997 5.57128423 118.43451635 7.1877207 118.44702148 10.09838867 C118.45963013 10.94599258 118.47223877 11.7935965 118.48522949 12.66688538 C118.47713257 13.56910324 118.46903564 14.47132111 118.46069336 15.40087891 C118.46452026 16.33874741 118.46834717 17.27661591 118.47229004 18.24290466 C118.47500599 20.22062253 118.46766701 22.1983765 118.45092773 24.17602539 C118.42948947 27.20296176 118.45075239 30.22753116 118.47631836 33.25439453 C118.4736755 35.17822789 118.46855138 37.10205978 118.46069336 39.02587891 C118.46879028 39.930121 118.47688721 40.8343631 118.48522949 41.76600647 C118.46631653 43.0326841 118.46631653 43.0326841 118.44702148 44.32495117 C118.44383911 45.06487808 118.44065674 45.80480499 118.43737793 46.56715393 C117.70807651 49.55339435 116.27668644 50.704441 113.92944336 52.64697266 C111.46501923 53.15033722 111.46501923 53.15033722 108.65393066 53.15490723 C107.58561508 53.16618652 106.5172995 53.17746582 105.41661072 53.18908691 C104.24973221 53.18098999 103.0828537 53.17289307 101.88061523 53.16455078 C100.64775284 53.17156006 99.41489044 53.17856934 98.14466858 53.18579102 C94.76630055 53.20038094 91.38891228 53.19696045 88.01059914 53.18427467 C84.47437859 53.17414344 80.93819974 53.18354068 77.40197754 53.18981934 C71.46362801 53.19709543 65.52547751 53.18750922 59.5871582 53.16845703 C52.72283017 53.14668813 45.85897737 53.15373955 38.99466085 53.17576265 C33.09983297 53.19391792 27.20514811 53.19647443 21.3103013 53.18600798 C17.79011655 53.17977365 14.27015513 53.17893547 10.74998474 53.19215393 C6.82589258 53.20586001 2.9023322 53.18686051 -1.02172852 53.16455078 C-2.77204628 53.17669617 -2.77204628 53.17669617 -4.557724 53.18908691 C-6.16019737 53.17216797 -6.16019737 53.17216797 -7.79504395 53.15490723 C-9.18653278 53.15264507 -9.18653278 53.15264507 -10.60613251 53.15033722 C-13.8248993 52.49289635 -15.02885854 51.16333788 -17.07055664 48.64697266 C-17.58522034 46.56715393 -17.58522034 46.56715393 -17.60400391 44.32495117 C-17.61984024 43.48049942 -17.63567657 42.63604767 -17.6519928 41.76600647 C-17.64703293 40.86176437 -17.64207306 39.95752228 -17.63696289 39.02587891 C-17.64316147 38.08896713 -17.64936005 37.15205536 -17.65574646 36.18675232 C-17.66284343 34.20727578 -17.65967276 32.22773954 -17.64697266 30.24829102 C-17.63311933 27.22316289 -17.6671637 24.20113579 -17.70532227 21.17626953 C-17.70627361 19.25113857 -17.70441382 17.32600374 -17.69946289 15.40087891 C-17.7127211 14.49866104 -17.72597931 13.59644318 -17.73963928 12.66688538 C-17.72710617 11.81928146 -17.71457306 10.97167755 -17.70166016 10.09838867 C-17.70069839 9.35766617 -17.69973663 8.61694366 -17.69874573 7.85377502 C-15.20151061 -0.91890902 -7.51378155 -0.06590346 0 0 Z " fill="#176F44" transform="translate(1761.070556640625,327.35302734375)"/>
<path d="M0 0 C2.31 0 4.62 0 7 0 C7 12.54 7 25.08 7 38 C4.69 38 2.38 38 0 38 C0 37.34 0 36.68 0 36 C-0.495 36.33 -0.99 36.66 -1.5 37 C-5.01175042 38.40470017 -8.31202826 38.73905783 -12 38 C-14.69105198 35.82425584 -16.45532928 34.08934144 -18 31 C-19.03994013 21.07599989 -19.03994013 21.07599989 -16.953125 16.91015625 C-15.19959481 14.80076258 -13.4596008 13.2298004 -11 12 C-9.125 11.8671875 -9.125 11.8671875 -7 11.875 C-5.948125 11.87113281 -5.948125 11.87113281 -4.875 11.8671875 C-3 12 -3 12 -1 13 C-0.67 8.71 -0.34 4.42 0 0 Z " fill="#D9D8D5" transform="translate(127,239)"/>
<path d="M0 0 C3.79742331 1.61592481 5.80513816 3.54478333 8 7 C8.97209746 12.77540254 8.42862391 18.15263517 5 23 C1.2288745 26.42829591 -2.66737483 26.50516394 -7.55859375 26.359375 C-11.14138273 25.83198846 -13.30629441 24.3569924 -16 22 C-19.11027212 17.33459182 -18.60536455 12.46304595 -18 7 C-13.90429044 -0.31376707 -7.73571062 -0.81626817 0 0 Z " fill="#DCDAD7" transform="translate(335,251)"/>
<path d="M0 0 C2.93423195 1.79646854 4.47205355 2.9441071 6 6 C6.08372659 7.52148326 6.10730027 9.04655778 6.09765625 10.5703125 C6.09443359 11.46621094 6.09121094 12.36210937 6.08789062 13.28515625 C6.07951172 14.22230469 6.07113281 15.15945313 6.0625 16.125 C6.05798828 17.06988281 6.05347656 18.01476562 6.04882812 18.98828125 C6.03702357 21.32558387 6.02055759 23.66276061 6 26 C3.69 26 1.38 26 -1 26 C-1 25.34 -1 24.68 -1 24 C-1.99 24.66 -2.98 25.32 -4 26 C-10.90410959 26.65753425 -10.90410959 26.65753425 -14.5 24.5 C-16.62072118 20.9654647 -16.91524487 18.01553379 -16 14 C-13.75945177 11.08728731 -12.04427629 10.18653485 -8.44140625 9.54296875 C-5.95770347 9.27874505 -3.49536278 9.09690729 -1 9 C-1.33 8.01 -1.66 7.02 -2 6 C-8.08408472 5.80185739 -8.08408472 5.80185739 -14 7 C-14 5.35 -14 3.7 -14 2 C-9.45763142 -0.62261465 -5.1304542 -0.69734329 0 0 Z " fill="#D8D7D4" transform="translate(275,251)"/>
<path d="M0 0 C0.83402344 -0.02835938 1.66804688 -0.05671875 2.52734375 -0.0859375 C6.25322934 0.59149624 7.63242437 1.41926971 10.0625 4.375 C10.6812306 8.14121967 10.53186762 11.82156367 10.375 15.625 C10.35244141 16.65625 10.32988281 17.6875 10.30664062 18.75 C10.24777163 21.29314065 10.16560065 23.83333113 10.0625 26.375 C8.0825 26.375 6.1025 26.375 4.0625 26.375 C3.7325 25.715 3.4025 25.055 3.0625 24.375 C2.0725 25.035 1.0825 25.695 0.0625 26.375 C-3.45125259 26.69443205 -6.0671631 26.70974496 -9.375 25.4375 C-11.58508512 22.52018764 -11.56399059 20.13005185 -11.37109375 16.53515625 C-10.9375 14.375 -10.9375 14.375 -9.0625 11.875 C-4.75750083 9.8086004 -0.66594661 9.55862899 4.0625 9.375 C3.7325 8.385 3.4025 7.395 3.0625 6.375 C1.62510487 6.34787934 0.18756137 6.32854933 -1.25 6.3125 C-2.05050781 6.30089844 -2.85101563 6.28929687 -3.67578125 6.27734375 C-6.10611334 6.27842145 -6.10611334 6.27842145 -8.9375 7.375 C-8.9375 5.725 -8.9375 4.075 -8.9375 2.375 C-5.86957211 0.60367905 -3.53533613 0.05447359 0 0 Z " fill="#DFDDDA" transform="translate(79.9375,250.625)"/>
<path d="M0 0 C2.35400289 1.93859062 3.25827966 2.83466794 4.125 5.75 C4.125 8.39 4.125 11.03 4.125 13.75 C-1.155 13.75 -6.435 13.75 -11.875 13.75 C-11.215 15.4 -10.555 17.05 -9.875 18.75 C-8.43760487 18.77712066 -7.00006137 18.79645067 -5.5625 18.8125 C-4.76199219 18.82410156 -3.96148437 18.83570313 -3.13671875 18.84765625 C-0.70638666 18.84657855 -0.70638666 18.84657855 2.125 17.75 C2.125 19.4 2.125 21.05 2.125 22.75 C-2.42547591 25.36075691 -6.73994794 25.56675631 -11.875 24.75 C-14.99677233 23.06712073 -17.26637035 20.9672593 -18.875 17.75 C-19.80638235 7.41318277 -19.80638235 7.41318277 -17.125 2.625 C-11.87349817 -1.75125153 -6.3846142 -2.77591922 0 0 Z " fill="#DEDDDA" transform="translate(157.875,252.25)"/>
<path d="M0 0 C2.31 0 4.62 0 7 0 C7.02505615 0.57032959 7.0501123 1.14065918 7.07592773 1.72827148 C7.19156549 4.29826157 7.31443624 6.86785527 7.4375 9.4375 C7.47681641 10.33533203 7.51613281 11.23316406 7.55664062 12.15820312 C7.59853516 13.01220703 7.64042969 13.86621094 7.68359375 14.74609375 C7.72025146 15.53685303 7.75690918 16.3276123 7.79467773 17.14233398 C7.80563257 19.01401441 7.80563257 19.01401441 9 20 C11.45792029 20.33343551 11.45792029 20.33343551 14 20 C15.9756562 17.03651571 16.26376859 16.31979627 16.4140625 12.98828125 C16.45273438 12.23095703 16.49140625 11.47363281 16.53125 10.69335938 C16.57765625 9.51483398 16.57765625 9.51483398 16.625 8.3125 C16.66367188 7.51521484 16.70234375 6.71792969 16.7421875 5.89648438 C16.83632494 3.93136525 16.91924632 1.9657146 17 0 C18.98 0 20.96 0 23 0 C23 8.58 23 17.16 23 26 C21.02 26 19.04 26 17 26 C16.67 25.34 16.34 24.68 16 24 C15.01 24.66 14.02 25.32 13 26 C5.90829694 26.67540029 5.90829694 26.67540029 2.5625 24.1875 C0.25477882 20.95669035 -0.12356616 18.41135801 -0.09765625 14.55078125 C-0.09443359 13.70322266 -0.09121094 12.85566406 -0.08789062 11.98242188 C-0.07951172 11.10134766 -0.07113281 10.22027344 -0.0625 9.3125 C-0.05798828 8.41982422 -0.05347656 7.52714844 -0.04882812 6.60742188 C-0.03704983 4.40488013 -0.02060164 2.20247401 0 0 Z " fill="#D8D6D3" transform="translate(231,251)"/>
<path d="M0 0 C2.31 0 4.62 0 7 0 C7.02505615 0.57032959 7.0501123 1.14065918 7.07592773 1.72827148 C7.19156549 4.29826157 7.31443624 6.86785527 7.4375 9.4375 C7.47681641 10.33533203 7.51613281 11.23316406 7.55664062 12.15820312 C7.59853516 13.01220703 7.64042969 13.86621094 7.68359375 14.74609375 C7.72025146 15.53685303 7.75690918 16.3276123 7.79467773 17.14233398 C7.80563257 19.01401441 7.80563257 19.01401441 9 20 C11.45809998 20.2500773 11.45809998 20.2500773 14 20 C16.35358251 17.64641749 16.27871904 17.07031606 16.4140625 13.8671875 C16.45273438 13.06152344 16.49140625 12.25585938 16.53125 11.42578125 C16.57765625 10.16314453 16.57765625 10.16314453 16.625 8.875 C16.66367188 8.02550781 16.70234375 7.17601562 16.7421875 6.30078125 C16.83656494 4.20088316 16.91937586 2.10047109 17 0 C18.98 0 20.96 0 23 0 C23 8.58 23 17.16 23 26 C21.02 26 19.04 26 17 26 C16.67 25.34 16.34 24.68 16 24 C15.01 24.66 14.02 25.32 13 26 C7.36363636 26.72727273 7.36363636 26.72727273 5 26 C1.94214943 23.33910293 0.27822414 21.66180673 -0.39648438 17.63183594 C-0.49158475 14.94575609 -0.43696851 12.30968996 -0.3125 9.625 C-0.28994141 8.69816406 -0.26738281 7.77132813 -0.24414062 6.81640625 C-0.18553677 4.54257665 -0.1035693 2.27215114 0 0 Z " fill="#D7D5D3" transform="translate(180,251)"/>
<path d="M0 0 C0.66 0.33 1.32 0.66 2 1 C2 2.65 2 4.3 2 6 C-1.3 6 -4.6 6 -8 6 C-8 6.99 -8 7.98 -8 9 C-7.37351562 9.26554687 -6.74703125 9.53109375 -6.1015625 9.8046875 C-4.87566406 10.33449219 -4.87566406 10.33449219 -3.625 10.875 C-2.81289063 11.22304688 -2.00078125 11.57109375 -1.1640625 11.9296875 C1 13 1 13 3 15 C3.56321839 21.1954023 3.56321839 21.1954023 1.6875 23.875 C-1.68143839 26.12095893 -4.69951955 26.13535747 -8.625 26.125 C-9.60726563 26.12757813 -10.58953125 26.13015625 -11.6015625 26.1328125 C-14 26 -14 26 -15 25 C-15.04063832 23.33382885 -15.042721 21.66611905 -15 20 C-14.37351562 20.08378906 -13.74703125 20.16757812 -13.1015625 20.25390625 C-12.28429687 20.35574219 -11.46703125 20.45757812 -10.625 20.5625 C-9.81289063 20.66691406 -9.00078125 20.77132813 -8.1640625 20.87890625 C-5.95100814 21.18237328 -5.95100814 21.18237328 -4 20 C-3.67 19.01 -3.34 18.02 -3 17 C-3.61488281 16.81824219 -4.22976563 16.63648438 -4.86328125 16.44921875 C-5.67152344 16.19785156 -6.47976563 15.94648438 -7.3125 15.6875 C-8.11300781 15.44386719 -8.91351563 15.20023437 -9.73828125 14.94921875 C-12.15994884 13.93287121 -13.4042436 13.07397992 -15 11 C-15.5 7.5625 -15.5 7.5625 -15 4 C-11.10465963 -1.06394248 -5.88100109 -0.63493994 0 0 Z " fill="#DBDAD7" transform="translate(362,251)"/>
<path d="M0 0 C1 1 1 1 1 6 C-2.3 5.67 -5.6 5.34 -9 5 C-8.48735946 8.95755329 -8.48735946 8.95755329 -6.2578125 10.16015625 C-5.55398437 10.45792969 -4.85015625 10.75570313 -4.125 11.0625 C-1.16269665 12.33596251 0.92230495 13.49398012 3 16 C3.4375 18.4375 3.4375 18.4375 3 21 C1.12972515 23.24432982 -0.38886404 24.69443202 -3 26 C-4.83128771 26.09608608 -6.66619959 26.12982579 -8.5 26.125 C-9.4796875 26.12757813 -10.459375 26.13015625 -11.46875 26.1328125 C-14 26 -14 26 -16 25 C-16 23.35 -16 21.7 -16 20 C-15.30132812 20.0721875 -14.60265625 20.144375 -13.8828125 20.21875 C-12.51769531 20.35796875 -12.51769531 20.35796875 -11.125 20.5 C-9.76761719 20.63921875 -9.76761719 20.63921875 -8.3828125 20.78125 C-6.06686789 21.03047295 -6.06686789 21.03047295 -4 21 C-4.20547472 19.05391112 -4.20547472 19.05391112 -5 17 C-6.74216392 15.7618382 -6.74216392 15.7618382 -8.875 14.9375 C-11.84026528 13.66276419 -13.91090929 12.49796473 -16 10 C-16.5625 7.625 -16.5625 7.625 -16 5 C-11.3711991 -0.48147475 -6.96822484 -0.91859838 0 0 Z " fill="#DCDAD7" transform="translate(224,251)"/>
<path d="M0 0 C1 1 1 1 1 6 C-2.3 5.67 -5.6 5.34 -9 5 C-8.48735946 8.95755329 -8.48735946 8.95755329 -6.2578125 10.16015625 C-5.55398437 10.45792969 -4.85015625 10.75570313 -4.125 11.0625 C-1.16269665 12.33596251 0.92230495 13.49398012 3 16 C3.4375 18.4375 3.4375 18.4375 3 21 C1.12972515 23.24432982 -0.38886404 24.69443202 -3 26 C-4.83128771 26.09608608 -6.66619959 26.12982579 -8.5 26.125 C-9.4796875 26.12757813 -10.459375 26.13015625 -11.46875 26.1328125 C-14 26 -14 26 -16 25 C-16 23.35 -16 21.7 -16 20 C-15.30132813 20.0721875 -14.60265625 20.144375 -13.8828125 20.21875 C-12.51769531 20.35796875 -12.51769531 20.35796875 -11.125 20.5 C-9.76761719 20.63921875 -9.76761719 20.63921875 -8.3828125 20.78125 C-6.06686789 21.03047295 -6.06686789 21.03047295 -4 21 C-4.20547472 19.05391112 -4.20547472 19.05391112 -5 17 C-6.74216392 15.7618382 -6.74216392 15.7618382 -8.875 14.9375 C-11.84026528 13.66276419 -13.91090929 12.49796473 -16 10 C-16.5625 7.625 -16.5625 7.625 -16 5 C-11.3711991 -0.48147475 -6.96822484 -0.91859838 0 0 Z " fill="#DCDAD7" transform="translate(45,251)"/>
<path d="M0 0 C0 2.31 0 4.62 0 7 C1.98 7 3.96 7 6 7 C6 8.32 6 9.64 6 11 C4.02 11 2.04 11 0 11 C0.33 16.28 0.66 21.56 1 27 C2.65 27.33 4.3 27.66 6 28 C6 29.65 6 31.3 6 33 C4.56344146 33.08131463 3.1255517 33.13933559 1.6875 33.1875 C0.48673828 33.23970703 0.48673828 33.23970703 -0.73828125 33.29296875 C-3.57436494 32.9256004 -4.25028188 32.21879149 -6 30 C-6.34057617 28.00708008 -6.34057617 28.00708008 -6.29296875 25.76953125 C-6.28330078 24.96708984 -6.27363281 24.16464844 -6.26367188 23.33789062 C-6.23853516 22.50451172 -6.21339844 21.67113281 -6.1875 20.8125 C-6.17396484 19.96751953 -6.16042969 19.12253906 -6.14648438 18.25195312 C-6.11115799 16.16769616 -6.05735139 14.08376723 -6 12 C-7.32 12 -8.64 12 -10 12 C-10 10.35 -10 8.7 -10 7 C-8.68 7 -7.36 7 -6 7 C-6 5.02 -6 3.04 -6 1 C-3 0 -3 0 0 0 Z " fill="#E3E1DE" transform="translate(60,244)"/>
<path d="M0 0 C1.98 0 3.96 0 6 0 C6.33 0.66 6.66 1.32 7 2 C7.66 1.34 8.32 0.68 9 0 C12.125 -0.125 12.125 -0.125 15 0 C15 1.98 15 3.96 15 6 C13.8553125 5.9071875 13.8553125 5.9071875 12.6875 5.8125 C10.0122008 5.74985033 10.0122008 5.74985033 8.36401367 7.26098633 C6.73875631 9.33306584 6.58623619 10.40611736 6.48828125 13.01171875 C6.45283203 13.76904297 6.41738281 14.52636719 6.38085938 15.30664062 C6.35830078 16.09232422 6.33574219 16.87800781 6.3125 17.6875 C6.27833984 18.48478516 6.24417969 19.28207031 6.20898438 20.10351562 C6.12661896 22.06851904 6.06162933 24.03423696 6 26 C4.02 26 2.04 26 0 26 C0 17.42 0 8.84 0 0 Z " fill="#E4E2DF" transform="translate(287,251)"/>
<path d="M0 0 C2.375 1.0625 2.375 1.0625 4 2 C4.36923077 7.41538462 4.36923077 7.41538462 2.5 10.375 C2.005 10.91125 1.51 11.4475 1 12 C1.33 12.66 1.66 13.32 2 14 C-1.05693322 15.52846661 -3.62984547 15.23242445 -7 15 C-9.4375 14.0625 -9.4375 14.0625 -11 12 C-11.62715448 8.87606071 -11.64685041 6.12175635 -11 3 C-7.56865698 -1.23871785 -5.09928129 -1.51893485 0 0 Z " fill="#DEDCD9" transform="translate(80,262)"/>
<path d="M0 0 C2.31 0 4.62 0 7 0 C7 8.58 7 17.16 7 26 C4.69 26 2.38 26 0 26 C0 17.42 0 8.84 0 0 Z " fill="#D3D1CF" transform="translate(305,251)"/>
<path d="M0 0 C0.99 0.66 1.98 1.32 3 2 C3.3984375 4.49609375 3.3984375 4.49609375 3.375 7.4375 C3.38273437 8.40558594 3.39046875 9.37367188 3.3984375 10.37109375 C3 13 3 13 1.6640625 14.82421875 C-0.92666892 16.65475903 -2.92387264 16.38451592 -6 16 C-8.03667615 14.45493534 -8.86073078 13.27853844 -10 11 C-10.35872645 7.12575435 -10.56710729 4.85066094 -8.375 1.5625 C-5.33458305 -0.43777431 -3.5772533 -0.45667063 0 0 Z " fill="#1B1E1F" transform="translate(333,256)"/>
<path d="M0 0 C1.98 0 3.96 0 6 0 C6 8.58 6 17.16 6 26 C4.02 26 2.04 26 0 26 C0 25.01 0 24.02 0 23 C-0.66 23 -1.32 23 -2 23 C-1.84660156 22.19304687 -1.69320312 21.38609375 -1.53515625 20.5546875 C-0.9111048 16.40952821 -0.65372796 12.3077704 -0.4375 8.125 C-0.39431641 7.34125 -0.35113281 6.5575 -0.30664062 5.75 C-0.20146649 3.83349351 -0.10032075 1.91676667 0 0 Z " fill="#E3E1DE" transform="translate(248,251)"/>
<path d="M0 0 C1.98 0 3.96 0 6 0 C6 8.58 6 17.16 6 26 C4.02 26 2.04 26 0 26 C0 25.01 0 24.02 0 23 C-0.66 23 -1.32 23 -2 23 C-1.76990234 22.05060547 -1.76990234 22.05060547 -1.53515625 21.08203125 C-0.81937036 16.95973151 -0.63849837 12.86233493 -0.4375 8.6875 C-0.39431641 7.85154297 -0.35113281 7.01558594 -0.30664062 6.15429688 C-0.20114693 4.10303065 -0.10012685 2.0515352 0 0 Z " fill="#E3E1DE" transform="translate(197,251)"/>
<path d="M0 0 C2.60186108 2.60186108 2.29810177 3.82354355 2.3125 7.4375 C2.33763672 8.88962891 2.33763672 8.88962891 2.36328125 10.37109375 C2 13 2 13 0.671875 14.82421875 C-1.91534456 16.64373531 -3.93734996 16.3909766 -7 16 C-9.14553377 12.78169935 -9.29583868 11.73213493 -9.3125 8 C-9.32925781 7.13375 -9.34601563 6.2675 -9.36328125 5.375 C-9 3 -9 3 -7.671875 1.20703125 C-5.11786964 -0.63686515 -3.05322852 -0.32481154 0 0 Z " fill="#171A1B" transform="translate(125,256)"/>
<path d="M0 0 C1.98 0 3.96 0 6 0 C6 8.58 6 17.16 6 26 C4.02 26 2.04 26 0 26 C0 17.42 0 8.84 0 0 Z " fill="#E3E1DE" transform="translate(18,251)"/>
<path d="M0 0 C-0.33 0.99 -0.66 1.98 -1 3 C-1.99 3 -2.98 3 -4 3 C-4 4.32 -4 5.64 -4 7 C-2.35 7 -0.7 7 1 7 C1.33 6.01 1.66 5.02 2 4 C3.65 4 5.3 4 7 4 C7 3.34 7 2.68 7 2 C5.35 2.33 3.7 2.66 2 3 C2 2.01 2 1.02 2 0 C4.33294775 -0.04241723 6.66702567 -0.04092937 9 0 C10 1 10 1 10.09765625 3.06640625 C10.08605469 3.89011719 10.07445312 4.71382813 10.0625 5.5625 C10.05347656 6.38878906 10.04445313 7.21507812 10.03515625 8.06640625 C10.02355469 8.70449219 10.01195312 9.34257812 10 10 C6.66666667 10 3.33333333 10 0 10 C-0.33 11.32 -0.66 12.64 -1 14 C-2.8125 13.8125 -2.8125 13.8125 -5 13 C-7.34586144 9.87218475 -8.79298555 6.93327451 -9 3 C-6.81596628 -0.72570458 -3.98864065 -0.26590938 0 0 Z " fill="#D0D2CC" transform="translate(1593,403)"/>
<path d="M0 0 C1.65 0 3.3 0 5 0 C7.3125 3 7.3125 3 9 6 C9.33 4.02 9.66 2.04 10 0 C10.99 0 11.98 0 13 0 C13 4.62 13 9.24 13 14 C9 13 9 13 6.75 9.9375 C6.1725 8.968125 5.595 7.99875 5 7 C4.67 9.31 4.34 11.62 4 14 C2.68 14 1.36 14 0 14 C0 9.38 0 4.76 0 0 Z " fill="#BCD3D0" transform="translate(342,399)"/>
<path d="M0 0 C1.0828125 0.37125 1.0828125 0.37125 2.1875 0.75 C2.1875 1.41 2.1875 2.07 2.1875 2.75 C2.8475 3.08 3.5075 3.41 4.1875 3.75 C2.2075 4.08 0.2275 4.41 -1.8125 4.75 C-1.4825 6.4 -1.1525 8.05 -0.8125 9.75 C0.8375 10.08 2.4875 10.41 4.1875 10.75 C3.8575 11.41 3.5275 12.07 3.1875 12.75 C3.8475 13.41 4.5075 14.07 5.1875 14.75 C4.1875 15.75 4.1875 15.75 0.375 16.0625 C-2.59867685 16.00377389 -3.69001147 15.82349312 -6.3125 14.25 C-8.42206009 10.73406652 -8.76030499 7.74548827 -7.8125 3.75 C-5.21656398 0.70904638 -4.0375691 -0.35889503 0 0 Z " fill="#DAD8D5" transform="translate(266.8125,261.25)"/>
<path d="M0 0 C2.47923801 -0.02685095 4.9581884 -0.04676547 7.4375 -0.0625 C8.14455078 -0.07087891 8.85160156 -0.07925781 9.58007812 -0.08789062 C11.38693559 -0.09653588 13.19387603 -0.05220011 15 0 C16 1 16 1 16.09765625 3.06640625 C16.08605469 3.89011719 16.07445312 4.71382813 16.0625 5.5625 C16.05347656 6.38878906 16.04445313 7.21507812 16.03515625 8.06640625 C16.02355469 8.70449219 16.01195312 9.34257812 16 10 C15.01 10 14.02 10 13 10 C12.67 7.69 12.34 5.38 12 3 C11.67 3 11.34 3 11 3 C10.67 5.31 10.34 7.62 10 10 C8.68 10 7.36 10 6 10 C6 7.36 6 4.72 6 2 C5.34 2 4.68 2 4 2 C4 4.64 4 7.28 4 10 C2.68 10 1.36 10 0 10 C0 6.7 0 3.4 0 0 Z " fill="#D3D6D1" transform="translate(370,403)"/>
<path d="M0 0 C2.29141286 -0.05384521 4.58318188 -0.09272087 6.875 -0.125 C8.78925781 -0.15980469 8.78925781 -0.15980469 10.7421875 -0.1953125 C14 0 14 0 16 2 C16.26991906 4.68839385 16.08737357 7.29141936 16 10 C14.68 10 13.36 10 12 10 C12 7.36 12 4.72 12 2 C11.01 2.495 11.01 2.495 10 3 C9.59270772 5.32156597 9.25561323 7.6568787 9 10 C8.01 10 7.02 10 6 10 C5.67 7.69 5.34 5.38 5 3 C4.67 3 4.34 3 4 3 C3.67 5.31 3.34 7.62 3 10 C2.01 10 1.02 10 0 10 C0 6.7 0 3.4 0 0 Z " fill="#E3E3DB" transform="translate(731,403)"/>
<path d="M0 0 C1.65 0 3.3 0 5 0 C5.67528223 1.57967807 6.33989694 3.16391903 7 4.75 C7.37125 5.63171875 7.7425 6.5134375 8.125 7.421875 C9 10 9 10 9 14 C7.68 13.67 6.36 13.34 5 13 C5 12.01 5 11.02 5 10 C3.35 10 1.7 10 0 10 C-0.33 11.32 -0.66 12.64 -1 14 C-1.99 14 -2.98 14 -4 14 C-3.52372025 12.04096255 -3.04388577 10.08278903 -2.5625 8.125 C-2.29566406 7.03445313 -2.02882813 5.94390625 -1.75390625 4.8203125 C-1 2 -1 2 0 0 Z " fill="#E3E2D8" transform="translate(1574,399)"/>
<path d="M0 0 C3.0625 0.3125 3.0625 0.3125 5 1.5 C6.0625 3.3125 6.0625 3.3125 5.875 5.875 C5.0625 8.3125 5.0625 8.3125 3.0625 10.3125 C0.0625 10.5625 0.0625 10.5625 -2.9375 10.3125 C-4.9375 8.3125 -4.9375 8.3125 -5.1875 5.3125 C-4.84687504 1.2250005 -4.07761768 0.43378911 0 0 Z " fill="#DADED9" transform="translate(1609.9375,402.6875)"/>
<path d="M0 0 C3.0625 0.3125 3.0625 0.3125 5 1.5 C6.0625 3.3125 6.0625 3.3125 5.875 5.875 C5.0625 8.3125 5.0625 8.3125 3.0625 10.3125 C0.0625 10.5625 0.0625 10.5625 -2.9375 10.3125 C-4.9375 8.3125 -4.9375 8.3125 -5.1875 5.3125 C-4.84687504 1.2250005 -4.07761768 0.43378911 0 0 Z " fill="#DADED9" transform="translate(1140.9375,402.6875)"/>
<path d="M0 0 C3.0625 0.3125 3.0625 0.3125 5 1.5 C6.0625 3.3125 6.0625 3.3125 5.875 5.875 C5.0625 8.3125 5.0625 8.3125 3.0625 10.3125 C0.0625 10.5625 0.0625 10.5625 -2.9375 10.3125 C-4.9375 8.3125 -4.9375 8.3125 -5.1875 5.3125 C-4.84687504 1.2250005 -4.07761768 0.43378911 0 0 Z " fill="#DADED9" transform="translate(362.9375,402.6875)"/>
<path d="M0 0 C0.66 0 1.32 0 2 0 C2 4.95 2 9.9 2 15 C-0.31 15 -2.62 15 -5 15 C-7 13 -7 13 -7.25 10 C-7 7 -7 7 -5 5 C-2.375 4.875 -2.375 4.875 0 5 C0 3.35 0 1.7 0 0 Z " fill="#C1E3E5" transform="translate(1781,349)"/>
<path d="M0 0 C0.99 0 1.98 0 3 0 C4.65 4.62 6.3 9.24 8 14 C7.01 14 6.02 14 5 14 C5 13.01 5 12.02 5 11 C2.69 11 0.38 11 -2 11 C-2 11.99 -2 12.98 -2 14 C-2.99 14 -3.98 14 -5 14 C-4.54636829 12.41531323 -4.08688548 10.83230076 -3.625 9.25 C-3.36976562 8.36828125 -3.11453125 7.4865625 -2.8515625 6.578125 C-2.0790066 4.23919428 -1.16374324 2.16557438 0 0 Z " fill="#BAD5C2" transform="translate(1765,350)"/>
<path d="M0 0 C0.99 0.103125 1.98 0.20625 3 0.3125 C5 3.3125 5 3.3125 4.625 6.5 C4.41875 7.428125 4.2125 8.35625 4 9.3125 C0.625 9.9375 0.625 9.9375 -3 10.3125 C-5 8.3125 -5 8.3125 -5.25 5.3125 C-4.90578549 1.18192588 -4.11441953 0.42858537 0 0 Z " fill="#D9E1CE" transform="translate(1810,353.6875)"/>
<path d="M0 0 C2.97 0 5.94 0 9 0 C9 0.66 9 1.32 9 2 C7.35 2 5.7 2 4 2 C4 3.32 4 4.64 4 6 C5.32 6 6.64 6 8 6 C8 6.66 8 7.32 8 8 C6.68 8 5.36 8 4 8 C4 9.32 4 10.64 4 12 C5.65 12 7.3 12 9 12 C9 12.66 9 13.32 9 14 C6.03 14 3.06 14 0 14 C0 9.38 0 4.76 0 0 Z " fill="#EBE4DA" transform="translate(712,399)"/>
<path d="M0 0 C3.375 -0.125 3.375 -0.125 7 0 C9 2 9 2 9.1953125 3.9453125 C9.13020833 5.96354167 9.06510417 7.98177083 9 10 C6.03 10 3.06 10 0 10 C-0.38218767 8.34385343 -0.71395102 6.67542976 -1 5 C0 4 0 4 2.5625 3.9375 C3.7690625 3.9684375 3.7690625 3.9684375 5 4 C5 3.34 5 2.68 5 2 C3.35 2.33 1.7 2.66 0 3 C0 2.01 0 1.02 0 0 Z " fill="#D9D6CA" transform="translate(749,403)"/>
<path d="M0 0 C3 0.25 3 0.25 5 2.25 C5 3.57 5 4.89 5 6.25 C3.02 6.25 1.04 6.25 -1 6.25 C-1 6.91 -1 7.57 -1 8.25 C0.65 7.92 2.3 7.59 4 7.25 C4 8.24 4 9.23 4 10.25 C0.625 10.375 0.625 10.375 -3 10.25 C-5 8.25 -5 8.25 -5.25 5.25 C-4.90584825 1.120179 -4.129821 0.34415175 0 0 Z " fill="#BFC0BA" transform="translate(1165,402.75)"/>
<path d="M0 0 C3 0.25 3 0.25 5 2.25 C5 3.57 5 4.89 5 6.25 C3.02 6.25 1.04 6.25 -1 6.25 C-1 6.91 -1 7.57 -1 8.25 C0.65 7.92 2.3 7.59 4 7.25 C4 8.24 4 9.23 4 10.25 C0.625 10.375 0.625 10.375 -3 10.25 C-5 8.25 -5 8.25 -5.25 5.25 C-4.90584825 1.120179 -4.129821 0.34415175 0 0 Z " fill="#BFC0BA" transform="translate(393,402.75)"/>
<path d="M0 0 C3 0.25 3 0.25 5 2.25 C5 3.57 5 4.89 5 6.25 C4.01 6.58 3.02 6.91 2 7.25 C2.66 7.25 3.32 7.25 4 7.25 C4 8.24 4 9.23 4 10.25 C0.625 10.375 0.625 10.375 -3 10.25 C-5 8.25 -5 8.25 -5.25 5.25 C-4.90584825 1.120179 -4.129821 0.34415175 0 0 Z " fill="#D6DCD9" transform="translate(1106,402.75)"/>
<path d="M0 0 C2.875 -0.125 2.875 -0.125 6 0 C8 2 8 2 8.1953125 3.9453125 C8.13020833 5.96354167 8.06510417 7.98177083 8 10 C5.03 10 2.06 10 -1 10 C-1 8.35 -1 6.7 -1 5 C0.65 4.67 2.3 4.34 4 4 C4 3.34 4 2.68 4 2 C2.35 2.33 0.7 2.66 -1 3 C-0.67 2.01 -0.34 1.02 0 0 Z " fill="#DEE5E5" transform="translate(67,403)"/>
<path d="M0 0 C0 1.65 0 3.3 0 5 C-1.65 5.33 -3.3 5.66 -5 6 C-3.68 6 -2.36 6 -1 6 C-1 6.99 -1 7.98 -1 9 C-6.625 9.25 -6.625 9.25 -10 7 C-10.43413997 4.17809019 -10.35140315 2.62012321 -8.9375 0.125 C-5.88430685 -1.64782183 -3.33588292 -0.69235306 0 0 Z " fill="#D3CFC9" transform="translate(1127,404)"/>
<path d="M0 0 C0.99 0 1.98 0 3 0 C3.185625 1.7015625 3.185625 1.7015625 3.375 3.4375 C3.684375 5.2009375 3.684375 5.2009375 4 7 C4.66 7.33 5.32 7.66 6 8 C6 5.36 6 2.72 6 0 C7.32 0 8.64 0 10 0 C10 3.3 10 6.6 10 10 C3.06640625 10.09765625 3.06640625 10.09765625 1 10 C0 9 0 9 -0.09765625 6.93359375 C-0.08605469 6.10988281 -0.07445312 5.28617187 -0.0625 4.4375 C-0.05347656 3.61121094 -0.04445312 2.78492188 -0.03515625 1.93359375 C-0.02355469 1.29550781 -0.01195312 0.65742188 0 0 Z " fill="#D6D7D0" transform="translate(43,403)"/>
<path d="M0 0 C6.93359375 -0.09765625 6.93359375 -0.09765625 9 0 C10 1 10 1 10.09765625 3.06640625 C10.08605469 3.89011719 10.07445312 4.71382813 10.0625 5.5625 C10.05347656 6.38878906 10.04445313 7.21507812 10.03515625 8.06640625 C10.02355469 8.70449219 10.01195312 9.34257812 10 10 C9.01 10 8.02 10 7 10 C7 7.36 7 4.72 7 2 C6.01 2.495 6.01 2.495 5 3 C4.59270772 5.32156597 4.25561323 7.6568787 4 10 C2.68 10 1.36 10 0 10 C0 6.7 0 3.4 0 0 Z " fill="#B1CFD0" transform="translate(1148,403)"/>
<path d="M0 0 C2.64 0 5.28 0 8 0 C8 0.66 8 1.32 8 2 C6.35 2 4.7 2 3 2 C3 3.32 3 4.64 3 6 C4.65 6 6.3 6 8 6 C8 6.66 8 7.32 8 8 C6.35 8 4.7 8 3 8 C3 9.32 3 10.64 3 12 C4.65 12 6.3 12 8 12 C8 12.66 8 13.32 8 14 C5.36 14 2.72 14 0 14 C0 9.38 0 4.76 0 0 Z " fill="#ECE8E1" transform="translate(33,399)"/>
<path d="M0 0 C4.62 0 9.24 0 14 0 C14 1.65 14 3.3 14 5 C9.38 5 4.76 5 0 5 C0 3.35 0 1.7 0 0 Z " fill="#E7E5E2" transform="translate(0,272)"/>
<path d="M0 0 C0.125 2.875 0.125 2.875 0 6 C-2 8 -2 8 -5.0625 8.1875 C-8 8 -8 8 -9 7 C-9.04063832 5.33382885 -9.042721 3.66611905 -9 2 C-5.62902617 0.50178941 -3.79557881 0 0 0 Z " fill="#1C1E1F" transform="translate(84,264)"/>
<path d="M0 0 C1.32 0 2.64 0 4 0 C4 4.95 4 9.9 4 15 C2.68 15 1.36 15 0 15 C0 10.05 0 5.1 0 0 Z " fill="#D3D3CA" transform="translate(1112,398)"/>
<path d="M0 0 C0.125 2.875 0.125 2.875 0 6 C-2 8 -2 8 -5.0625 8.1875 C-8 8 -8 8 -9 7 C-9.04063832 5.33382885 -9.042721 3.66611905 -9 2 C-3.375 0 -3.375 0 0 0 Z " fill="#191C1D" transform="translate(274,264)"/>
<path d="M0 0 C1.65 0 3.3 0 5 0 C5 0.66 5 1.32 5 2 C4.01 2 3.02 2 2 2 C2 2.99 2 3.98 2 5 C2.66 5 3.32 5 4 5 C4 5.66 4 6.32 4 7 C3.34 7 2.68 7 2 7 C2 9.64 2 12.28 2 15 C1.01 15 0.02 15 -1 15 C-1 12.36 -1 9.72 -1 7 C-1.66 7 -2.32 7 -3 7 C-3 6.34 -3 5.68 -3 5 C-2.34 5 -1.68 5 -1 5 C-0.67 3.35 -0.34 1.7 0 0 Z " fill="#E9E9E6" transform="translate(1131,398)"/>
<path d="M0 0 C3.63 0 7.26 0 11 0 C11 0.66 11 1.32 11 2 C9.68 2 8.36 2 7 2 C7 5.96 7 9.92 7 14 C6.01 14 5.02 14 4 14 C4 10.04 4 6.08 4 2 C2.68 2 1.36 2 0 2 C0 1.34 0 0.68 0 0 Z " fill="#ECE6D9" transform="translate(1091,399)"/>
<path d="M0 0 C2.33294775 -0.04241723 4.66702567 -0.04092937 7 0 C8 1 8 1 8.09765625 3.06640625 C8.08605469 3.89011719 8.07445312 4.71382813 8.0625 5.5625 C8.05347656 6.38878906 8.04445313 7.21507812 8.03515625 8.06640625 C8.02355469 8.70449219 8.01195312 9.34257812 8 10 C5.36 10 2.72 10 0 10 C0.66 8.68 1.32 7.36 2 6 C2 6.66 2 7.32 2 8 C2.99 7.34 3.98 6.68 5 6 C4.34 5.34 3.68 4.68 3 4 C3.66 4 4.32 4 5 4 C5 3.34 5 2.68 5 2 C3.35 2.33 1.7 2.66 0 3 C0 2.01 0 1.02 0 0 Z " fill="#DFDDCE" transform="translate(1595,403)"/>
<path d="M0 0 C0.66 0 1.32 0 2 0 C2 3.3 2 6.6 2 10 C1.34 10 0.68 10 0 10 C0 9.34 0 8.68 0 8 C-1.65 8 -3.3 8 -5 8 C-5.38218767 6.34385343 -5.71395102 4.67542976 -6 3 C-5 2 -5 2 -2.4375 1.9375 C-1.2309375 1.9684375 -1.2309375 1.9684375 0 2 C0 1.34 0 0.68 0 0 Z " fill="#226322" transform="translate(1798,354)"/>
<path d="M0 0 C3.0625 0.1875 3.0625 0.1875 5.0625 2.1875 C5.0625 3.5075 5.0625 4.8275 5.0625 6.1875 C1.7625 6.1875 -1.5375 6.1875 -4.9375 6.1875 C-3.87127483 0.24710265 -3.87127483 0.24710265 0 0 Z " fill="#16191A" transform="translate(150.9375,255.8125)"/>
<path d="M0 0 C0.99 0 1.98 0 3 0 C3 4.62 3 9.24 3 14 C1.68 13.67 0.36 13.34 -1 13 C-2.25 10.4375 -2.25 10.4375 -3 8 C-2.01 8 -1.02 8 0 8 C0 5.36 0 2.72 0 0 Z " fill="#DCE4E5" transform="translate(352,399)"/>
<path d="M0 0 C3.375 -0.125 3.375 -0.125 7 0 C9 2 9 2 9.1953125 3.9453125 C9.13020833 5.96354167 9.06510417 7.98177083 9 10 C8.34 10 7.68 10 7 10 C6.67 7.69 6.34 5.38 6 3 C5.01 3 4.02 3 3 3 C2.67 5.31 2.34 7.62 2 10 C1.34 10 0.68 10 0 10 C0 6.7 0 3.4 0 0 Z " fill="#D3E0CB" transform="translate(1817,354)"/>
<path d="M0 0 C2.05078125 0.03255208 4.1015625 0.06510417 6.15234375 0.09765625 C6.48234375 1.41765625 6.81234375 2.73765625 7.15234375 4.09765625 C3.19234375 4.75765625 -0.76765625 5.41765625 -4.84765625 6.09765625 C-2.46061521 0.13005366 -2.46061521 0.13005366 0 0 Z " fill="#101315" transform="translate(266.84765625,255.90234375)"/>
<path d="M0 0 C0.66 0.66 1.32 1.32 2 2 C2.66 1.34 3.32 0.68 4 0 C7.125 -0.125 7.125 -0.125 10 0 C10 1.98 10 3.96 10 6 C3.375 6.125 3.375 6.125 0 5 C0 3.35 0 1.7 0 0 Z " fill="#DAD8D6" transform="translate(292,251)"/>
<path d="M0 0 C4 2 4 2 4.75 4.125 C4.8325 4.74375 4.915 5.3625 5 6 C4.01 6.33 3.02 6.66 2 7 C0.78130071 9.50447516 0.78130071 9.50447516 0 12 C-0.99 12 -1.98 12 -3 12 C-2.01 8.04 -1.02 4.08 0 0 Z " fill="#B8BEC0" transform="translate(1573,401)"/>
<path d="M0 0 C1.299375 0.2475 1.299375 0.2475 2.625 0.5 C0.82011787 3.36733048 -1.0067567 6.06775013 -3.375 8.5 C-6.75 9 -6.75 9 -9.375 8.5 C-4.43845733 0.65754923 -4.43845733 0.65754923 0 0 Z " fill="#D6D4D2" transform="translate(275.375,238.5)"/>
<path d="M0 0 C0.99 0 1.98 0 3 0 C3 4.95 3 9.9 3 15 C2.01 15 1.02 15 0 15 C0 10.05 0 5.1 0 0 Z " fill="#EDE5D4" transform="translate(766,398)"/>
<path d="M0 0 C2.31 0.33 4.62 0.66 7 1 C7 3.97 7 6.94 7 10 C4.69 10 2.38 10 0 10 C0 9.01 0 8.02 0 7 C1.32 7 2.64 7 4 7 C4.33 6.34 4.66 5.68 5 5 C4.34 4.67 3.68 4.34 3 4 C3.66 4 4.32 4 5 4 C5 3.34 5 2.68 5 2 C3.02 2.33 1.04 2.66 -1 3 C-0.67 2.01 -0.34 1.02 0 0 Z " fill="#D1DFCD" transform="translate(1829,354)"/>
<path d="M0 0 C0.33 1.65 0.66 3.3 1 5 C-1.875 5.625 -1.875 5.625 -5 6 C-5.66 5.34 -6.32 4.68 -7 4 C-6.75 1.9375 -6.75 1.9375 -6 0 C-3.50907189 -1.24546405 -2.58919267 -0.7767578 0 0 Z " fill="#D0CFCC" transform="translate(24,240)"/>
<path d="M0 0 C0.33 0.99 0.66 1.98 1 3 C2.98 2.67 4.96 2.34 7 2 C7 2.66 7 3.32 7 4 C6.195625 4.12375 5.39125 4.2475 4.5625 4.375 C3.2940625 4.684375 3.2940625 4.684375 2 5 C1.67 5.66 1.34 6.32 1 7 C-1.5625 7.625 -1.5625 7.625 -4 8 C-4.33 6.35 -4.66 4.7 -5 3 C-4.360625 2.87625 -3.72125 2.7525 -3.0625 2.625 C-2.0415625 2.315625 -2.0415625 2.315625 -1 2 C-0.67 1.34 -0.34 0.68 0 0 Z " fill="#281F25" transform="translate(1593,403)"/>
<path d="M0 0 C2.64 0 5.28 0 8 0 C8.33 1.32 8.66 2.64 9 4 C5.7 4.33 2.4 4.66 -1 5 C-1 2 -1 2 0 0 Z " fill="#141718" transform="translate(75,256)"/>
<path d="M0 0 C0.33 0 0.66 0 1 0 C1 3.3 1 6.6 1 10 C0.67 9.01 0.34 8.02 0 7 C-6.435 7.495 -6.435 7.495 -13 8 C-13 7.01 -13 6.02 -13 5 C-8.71 5.33 -4.42 5.66 0 6 C0 5.34 0 4.68 0 4 C-2.31 4 -4.62 4 -7 4 C-7 3.67 -7 3.34 -7 3 C-4.69 3 -2.38 3 0 3 C0 2.01 0 1.02 0 0 Z " fill="#0A0302" transform="translate(729,403)"/>
<path d="M0 0 C2.125 0.375 2.125 0.375 4 1 C4.38218767 2.65614657 4.71395102 4.32457024 5 6 C4 7 4 7 1.4375 7.0625 C0.2309375 7.0315625 0.2309375 7.0315625 -1 7 C-1.625 4.625 -1.625 4.625 -2 2 C-1.34 1.34 -0.68 0.68 0 0 Z " fill="#D8D7D4" transform="translate(307,239)"/>
<path d="M0 0 C-0.33 0.99 -0.66 1.98 -1 3 C-1.99 3 -2.98 3 -4 3 C-4 4.65 -4 6.3 -4 8 C-5.32 8 -6.64 8 -8 8 C-8.6875 5.6875 -8.6875 5.6875 -9 3 C-6.81596628 -0.72570458 -3.98864065 -0.26590938 0 0 Z " fill="#D3DBD5" transform="translate(1593,403)"/>
<path d="M0 0 C-0.99 1.485 -0.99 1.485 -2 3 C-0.68 3.33 0.64 3.66 2 4 C-1.3 4.66 -4.6 5.32 -8 6 C-8 4.35 -8 2.7 -8 1 C-4.93251126 -0.86240388 -3.40254489 -1.2151946 0 0 Z " fill="#CDCBC9" transform="translate(269,252)"/>
<path d="M0 0 C0.66 0 1.32 0 2 0 C2 1.32 2 2.64 2 4 C3.32 4 4.64 4 6 4 C6 4.66 6 5.32 6 6 C4.68 6 3.36 6 2 6 C2 7.32 2 8.64 2 10 C1.34 10 0.68 10 0 10 C0 8.68 0 7.36 0 6 C-1.32 6 -2.64 6 -4 6 C-4 5.34 -4 4.68 -4 4 C-2.68 4 -1.36 4 0 4 C0 2.68 0 1.36 0 0 Z " fill="#B7D8CF" transform="translate(1855,354)"/>
<path d="M0 0 C0.99 0.33 1.98 0.66 3 1 C3 3.64 3 6.28 3 9 C1.68 9 0.36 9 -1 9 C-1.09765625 2.84765625 -1.09765625 2.84765625 -1 1 C-0.67 0.67 -0.34 0.34 0 0 Z " fill="#D6D5C7" transform="translate(744,404)"/>
<path d="M0 0 C1.65 0 3.3 0 5 0 C5.38218767 1.65614657 5.71395102 3.32457024 6 5 C5 6 5 6 2.4375 6.0625 C1.2309375 6.0315625 1.2309375 6.0315625 0 6 C0 4.02 0 2.04 0 0 Z " fill="#126236" transform="translate(1807,356)"/>
<path d="M0 0 C1.67542976 0.28604898 3.34385343 0.61781233 5 1 C5.33 2.65 5.66 4.3 6 6 C4.02 6 2.04 6 0 6 C-0.38218767 4.34385343 -0.71395102 2.67542976 -1 1 C-0.67 0.67 -0.34 0.34 0 0 Z " fill="#AFBABD" transform="translate(749,407)"/>
<path d="M0 0 C0.33 0 0.66 0 1 0 C1.33 3.96 1.66 7.92 2 12 C2.66 10.68 3.32 9.36 4 8 C4 9.32 4 10.64 4 12 C5.65 12 7.3 12 9 12 C9 12.66 9 13.32 9 14 C6.03 14 3.06 14 0 14 C0 9.38 0 4.76 0 0 Z " fill="#B7CCD2" transform="translate(712,399)"/>
<path d="M0 0 C0 2.97 0 5.94 0 9 C-0.99 9 -1.98 9 -3 9 C-3 6.36 -3 3.72 -3 1 C-3.99 0.67 -4.98 0.34 -6 0 C-4 -1 -4 -1 0 0 Z " fill="#DAE3E5" transform="translate(1158,404)"/>
<path d="M0 0 C0.33 0 0.66 0 1 0 C1 2.64 1 5.28 1 8 C-1.97 8 -4.94 8 -8 8 C-7.34 7.67 -6.68 7.34 -6 7 C-6 6.01 -6 5.02 -6 4 C-4.35 4 -2.7 4 -1 4 C-0.67 2.68 -0.34 1.36 0 0 Z " fill="#C6BBAA" transform="translate(74,405)"/>
<path d="M0 0 C0.99 0 1.98 0 3 0 C3 3.3 3 6.6 3 10 C2.01 10 1.02 10 0 10 C0 6.7 0 3.4 0 0 Z " fill="#EDE5D4" transform="translate(61,403)"/>
<path d="M0 0 C0.99 0 1.98 0 3 0 C4.125 7.75 4.125 7.75 3 10 C2.01 9.67 1.02 9.34 0 9 C0 6.03 0 3.06 0 0 Z " fill="#DAE4DF" transform="translate(43,403)"/>
<path d="M0 0 C0.99 0 1.98 0 3 0 C3 3.3 3 6.6 3 10 C2.01 10 1.02 10 0 10 C0 6.7 0 3.4 0 0 Z " fill="#D9E5E8" transform="translate(760,403)"/>
<path d="M0 0 C3.3 0.33 6.6 0.66 10 1 C10 1.33 10 1.66 10 2 C7.69 2.66 5.38 3.32 3 4 C2.67 5.65 2.34 7.3 2 9 C1.34 9 0.68 9 0 9 C0 6.03 0 3.06 0 0 Z " fill="#050C1B" transform="translate(1099,401)"/>
<path d="M0 0 C0.99 0.33 1.98 0.66 3 1 C3 3.97 3 6.94 3 10 C2.01 10 1.02 10 0 10 C0 6.7 0 3.4 0 0 Z " fill="#E8E5D5" transform="translate(383,403)"/>
<path d="M0 0 C1.32 0 2.64 0 4 0 C4 1.98 4 3.96 4 6 C2.35 6 0.7 6 -1 6 C-1.042721 4.33388095 -1.04063832 2.66617115 -1 1 C-0.67 0.67 -0.34 0.34 0 0 Z " fill="#0F602C" transform="translate(1777,356)"/>
<path d="M0 0 C0.33 0 0.66 0 1 0 C1 2.64 1 5.28 1 8 C0.67 7.34 0.34 6.68 0 6 C-1.65 6 -3.3 6 -5 6 C-5 4.68 -5 3.36 -5 2 C-3.35 2 -1.7 2 0 2 C0 1.34 0 0.68 0 0 Z " fill="#220B09" transform="translate(41,405)"/>
<path d="M0 0 C1.65 0 3.3 0 5 0 C5 0.66 5 1.32 5 2 C4.01 2 3.02 2 2 2 C2 2.99 2 3.98 2 5 C2.66 5 3.32 5 4 5 C4 5.66 4 6.32 4 7 C3.34 7 2.68 7 2 7 C2 9.64 2 12.28 2 15 C1.67 15 1.34 15 1 15 C0.67 10.05 0.34 5.1 0 0 Z " fill="#E4DCBD" transform="translate(1131,398)"/>
<path d="M0 0 C0.33 0 0.66 0 1 0 C1 1.65 1 3.3 1 5 C3.64 5 6.28 5 9 5 C9 5.99 9 6.98 9 8 C5.625 8.125 5.625 8.125 2 8 C0 6 0 6 -0.125 2.875 C-0.08375 1.92625 -0.0425 0.9775 0 0 Z " fill="#BFD1D6" transform="translate(1160,405)"/>
<path d="M0 0 C0.33 0 0.66 0 1 0 C1 1.65 1 3.3 1 5 C3.64 5 6.28 5 9 5 C9 5.99 9 6.98 9 8 C5.625 8.125 5.625 8.125 2 8 C0 6 0 6 -0.125 2.875 C-0.08375 1.92625 -0.0425 0.9775 0 0 Z " fill="#BFD1D6" transform="translate(388,405)"/>
<path d="M0 0 C0.33 1.32 0.66 2.64 1 4 C3.64 4 6.28 4 9 4 C9 4.99 9 5.98 9 7 C3.375 7.25 3.375 7.25 0 5 C-0.1875 2.375 -0.1875 2.375 0 0 Z " fill="#B5CDD5" transform="translate(1117,406)"/>
<path d="M0 0 C2.31 0 4.62 0 7 0 C7 1.98 7 3.96 7 6 C5.68 5.34 4.36 4.68 3 4 C3.66 4 4.32 4 5 4 C5 3.34 5 2.68 5 2 C3.35 2.33 1.7 2.66 0 3 C0 2.01 0 1.02 0 0 Z " fill="#E2E2DC" transform="translate(1595,403)"/>
<path d="M0 0 C0.33 0.99 0.66 1.98 1 3 C2.65 2.67 4.3 2.34 6 2 C6 2.66 6 3.32 6 4 C4.35 4.33 2.7 4.66 1 5 C1 6.65 1 8.3 1 10 C0.34 10 -0.32 10 -1 10 C-1.02689216 8.52093108 -1.04634621 7.04172517 -1.0625 5.5625 C-1.07410156 4.73878906 -1.08570313 3.91507812 -1.09765625 3.06640625 C-1 1 -1 1 0 0 Z " fill="#0E1017" transform="translate(748,403)"/>
<path d="M0 0 C4.875 0.875 4.875 0.875 6 2 C6.14115161 4.67058851 6.04247107 7.32432238 6 10 C5.34 10 4.68 10 4 10 C3.67 7.03 3.34 4.06 3 1 C2.01 0.67 1.02 0.34 0 0 Z " fill="#E4E1BE" transform="translate(1820,354)"/>
<path d="M0 0 C0.33 0.66 0.66 1.32 1 2 C4.465 1.505 4.465 1.505 8 1 C8 1.66 8 2.32 8 3 C7.05125 3.268125 6.1025 3.53625 5.125 3.8125 C1.74732727 4.74986588 1.74732727 4.74986588 0 8 C0 5.36 0 2.72 0 0 Z " fill="#02562A" transform="translate(1826,355)"/>
<path d="M0 0 C0.33 1.32 0.66 2.64 1 4 C2.65 4 4.3 4 6 4 C6 4.66 6 5.32 6 6 C4.35 6 2.7 6 1 6 C0.67 7.32 0.34 8.64 0 10 C-0.74926071 6.33694766 -1.2380014 3.57644848 0 0 Z " fill="#E6DCBC" transform="translate(35,401)"/>
<path d="M0 0 C0.99 0 1.98 0 3 0 C3 2.31 3 4.62 3 7 C2.01 7 1.02 7 0 7 C0 4.69 0 2.38 0 0 Z " fill="#E0EAE3" transform="translate(737,406)"/>
<path d="M0 0 C1.65 0 3.3 0 5 0 C5.33 1.32 5.66 2.64 6 4 C5.34 4 4.68 4 4 4 C3.67 4.66 3.34 5.32 3 6 C0 2.25 0 2.25 0 0 Z " fill="#D7D9D0" transform="translate(1574,399)"/>
<path d="M0 0 C0.99 0.33 1.98 0.66 3 1 C2.67 2.65 2.34 4.3 2 6 C1.01 5.67 0.02 5.34 -1 5 C-0.67 3.35 -0.34 1.7 0 0 Z " fill="#2A171A" transform="translate(1609,405)"/>
<path d="M0 0 C2.97 0.495 2.97 0.495 6 1 C4 4 4 4 1.375 4.6875 C0.199375 4.8421875 0.199375 4.8421875 -1 5 C-0.67 3.35 -0.34 1.7 0 0 Z " fill="#AFB1B6" transform="translate(1595,407)"/>
<path d="M0 0 C0.99 0.33 1.98 0.66 3 1 C2.67 2.65 2.34 4.3 2 6 C1.01 5.67 0.02 5.34 -1 5 C-0.67 3.35 -0.34 1.7 0 0 Z " fill="#2A171A" transform="translate(1140,405)"/>
<path d="M0 0 C0.99 0.33 1.98 0.66 3 1 C2.67 2.65 2.34 4.3 2 6 C1.01 5.67 0.02 5.34 -1 5 C-0.67 3.35 -0.34 1.7 0 0 Z " fill="#2A171A" transform="translate(362,405)"/>
<path d="M0 0 C0.99 0 1.98 0 3 0 C3 1.32 3 2.64 3 4 C0.69 4 -1.62 4 -4 4 C-4 3.34 -4 2.68 -4 2 C-2.68 2 -1.36 2 0 2 C0 1.34 0 0.68 0 0 Z " fill="#E8E3D6" transform="translate(1167,405)"/>
<path d="M0 0 C0.99 0 1.98 0 3 0 C3 1.32 3 2.64 3 4 C0.69 4 -1.62 4 -4 4 C-4 3.34 -4 2.68 -4 2 C-2.68 2 -1.36 2 0 2 C0 1.34 0 0.68 0 0 Z " fill="#E8E3D6" transform="translate(395,405)"/>
<path d="M0 0 C1.4540625 0.0309375 1.4540625 0.0309375 2.9375 0.0625 C2.9375 1.0525 2.9375 2.0425 2.9375 3.0625 C1.2875 3.3925 -0.3625 3.7225 -2.0625 4.0625 C-2.0625 3.4025 -2.0625 2.7425 -2.0625 2.0625 C-2.7225 1.7325 -3.3825 1.4025 -4.0625 1.0625 C-3.0625 0.0625 -3.0625 0.0625 0 0 Z " fill="#A4A9A4" transform="translate(1106.0625,402.9375)"/>
<path d="M0 0 C0 1.32 0 2.64 0 4 C-2.31 4 -4.62 4 -7 4 C-7 3.34 -7 2.68 -7 2 C-2.25 0 -2.25 0 0 0 Z " fill="#E8DECD" transform="translate(1111,405)"/>
<path d="M0 0 C1.98 0 3.96 0 6 0 C6.33 0.66 6.66 1.32 7 2 C6.34 2 5.68 2 5 2 C4.67 2.66 4.34 3.32 4 4 C4 3.34 4 2.68 4 2 C2.35 2.33 0.7 2.66 -1 3 C-0.67 2.01 -0.34 1.02 0 0 Z " fill="#C9D0D0" transform="translate(67,403)"/>
<path d="M0 0 C0.99 0.33 1.98 0.66 3 1 C2.67 2.65 2.34 4.3 2 6 C1.01 6.33 0.02 6.66 -1 7 C-0.67 4.69 -0.34 2.38 0 0 Z " fill="#E7DAC1" transform="translate(1613,405)"/>
<path d="M0 0 C0.99 0.33 1.98 0.66 3 1 C2.67 2.65 2.34 4.3 2 6 C1.01 6.33 0.02 6.66 -1 7 C-0.67 4.69 -0.34 2.38 0 0 Z " fill="#E7DAC1" transform="translate(1144,405)"/>
<path d="M0 0 C0.99 0.33 1.98 0.66 3 1 C2.67 2.65 2.34 4.3 2 6 C1.01 6.33 0.02 6.66 -1 7 C-0.67 4.69 -0.34 2.38 0 0 Z " fill="#E7DAC1" transform="translate(366,405)"/>
<path d="M0 0 C-0.33 0.99 -0.66 1.98 -1 3 C-2.65 2.67 -4.3 2.34 -6 2 C-6 1.34 -6 0.68 -6 0 C-3.50907189 -1.24546405 -2.58919267 -0.7767578 0 0 Z " fill="#7D9E7E" transform="translate(1834,359)"/>
<path d="M0 0 C1.65 0 3.3 0 5 0 C5.33 0.99 5.66 1.98 6 3 C4.02 3 2.04 3 0 3 C0 2.01 0 1.02 0 0 Z " fill="#0C0F11" transform="translate(716,408)"/>
<path d="M0 0 C1.98 0 3.96 0 6 0 C6 0.99 6 1.98 6 3 C3.69 3 1.38 3 -1 3 C-0.67 2.01 -0.34 1.02 0 0 Z " fill="#D0DBDB" transform="translate(1596,398)"/>
<path d="M0 0 C1.65 0 3.3 0 5 0 C4.525625 0.350625 4.05125 0.70125 3.5625 1.0625 C1.32126175 3.84163543 1.32882342 6.5144717 1 10 C0.67 10 0.34 10 0 10 C0 6.7 0 3.4 0 0 Z " fill="#EDE7D6" transform="translate(1839,354)"/>
<path d="M0 0 C2.00720923 0.28674418 4.0085944 0.61866701 6 1 C6 1.33 6 1.66 6 2 C4.02 2 2.04 2 0 2 C0 3.32 0 4.64 0 6 C-0.99 6 -1.98 6 -3 6 C-1.125 1.125 -1.125 1.125 0 0 Z " fill="#D9E5D5" transform="translate(1763,358)"/>
<path d="M0 0 C3 3.75 3 3.75 3 6 C1.35 6 -0.3 6 -2 6 C-1.34 4.02 -0.68 2.04 0 0 Z " fill="#1E592E" transform="translate(1766,353)"/>
<path d="M0 0 C1.2065625 0.0309375 1.2065625 0.0309375 2.4375 0.0625 C2.4375 0.7225 2.4375 1.3825 2.4375 2.0625 C1.81875 2.145 1.2 2.2275 0.5625 2.3125 C-1.74687567 2.87508459 -1.74687567 2.87508459 -2.8125 5.125 C-3.06 5.764375 -3.3075 6.40375 -3.5625 7.0625 C-3.60504356 5.06295254 -3.60330783 3.06208364 -3.5625 1.0625 C-2.5625 0.0625 -2.5625 0.0625 0 0 Z " fill="#DBDBC1" transform="translate(1778.5625,353.9375)"/>
</svg>
